#Comment line ignore any data following # character 
#Hierarchical Translation and Rotation (.htr) file 
[Header]	
#Header keywords are followed by a single value 
FileType HTR		#Single word string
DataType HTRS		#Translation followed by rotation and scale data
FileVersion 1		#integer
NumSegments 64		#integer
NumFrames 3		#integer
DataFrameRate 30		#integer, data frame rate in this file
EulerRotationOrder ZYX
CalibrationUnits mm
RotationUnits Degrees
GlobalAxisofGravity Y
BoneLengthAxis Y
ScaleFactor 1.00
[SegmentNames&Hierarchy]
#CHILD	PARENT
Pinger_Root GLOBAL
Pelvis Pinger_Root
L_Hip Pelvis
R_Hip Pelvis
Rear_Leg01 Pelvis
Spine1 Pelvis
L_Leg01 L_Hip
L_Leg02 L_Leg01
L_Leg03 L_Leg02
L_Foot L_Leg03
L_Toe1_01 L_Foot
L_Toe2_01 L_Foot
L_Toe3_01 L_Foot
planeAlignerLeft L_Foot
L_Toe1_02 L_Toe1_01
L_Toe1_03 L_Toe1_02
L_Toe2_02 L_Toe2_01
L_Toe2_03 L_Toe2_02
L_Toe3_02 L_Toe3_01
L_Toe3_03 L_Toe3_02
planeLockWeightLeft planeAlignerLeft
R_Leg01 R_Hip
R_Leg02 R_Leg01
R_Leg03 R_Leg02
R_Foot R_Leg03
planeAlignerRight R_Foot
R_Toe1_01 R_Foot
R_Toe2_01 R_Foot
R_Toe3_01 R_Foot
planeLockWeightRight planeAlignerRight
R_Toe1_02 R_Toe1_01
R_Toe1_03 R_Toe1_02
R_Toe2_02 R_Toe2_01
R_Toe2_03 R_Toe2_02
R_Toe3_02 R_Toe3_01
R_Toe3_03 R_Toe3_02
Rear_Leg02 Rear_Leg01
Rear_Leg03 Rear_Leg02
Rear_Leg04 Rear_Leg03
Rear_Foot Rear_Leg04
planeAlignerCenter Rear_Foot
Rear_Toe1_01 Rear_Foot
Rear_Toe2_01 Rear_Foot
Rear_Toe3_01 Rear_Foot
planeLockWeightCenter planeAlignerCenter
Rear_Toe1_02 Rear_Toe1_01
Rear_Toe1_03 Rear_Toe1_02
Rear_Toe2_02 Rear_Toe2_01
Rear_Toe2_03 Rear_Toe2_02
Rear_Toe3_02 Rear_Toe3_01
Rear_Toe3_03 Rear_Toe3_02
Back_Bone Spine1
Head Spine1
Motor_Bone Back_Bone
Ping_Mechanism Back_Bone
BN_LookIK Head
bottomMouth Head
L_Mouth01 Head
L_mouthFront Head
mouthGun Head
R_Mouth01 Head
R_mouthFront Head
TopMouth Head
weapon_bone Head
[BasePosition]
#SegmentName Tx, Ty, Tz, Rx, Ry, Rz, BoneLength
Pinger_Root 0.000000 0.000000 0.000000 -90.000000 0.000000 0.000000 10.000000 
Pelvis 0.000000 0.000000 0.000000 0.000000 0.000000 0.000000 10.000000 
L_Hip 0.000000 0.000000 0.000000 0.000000 0.000000 0.000000 10.000000 
R_Hip 0.000000 0.000000 0.000000 0.000000 0.000000 0.000000 10.000000 
Rear_Leg01 0.000000 0.000000 0.000000 0.000000 0.000000 0.000000 10.000000 
Spine1 0.000000 0.000000 0.000000 0.000000 0.000000 0.000000 10.000000 
L_Leg01 0.000000 0.000000 0.000000 0.000000 0.000000 0.000000 10.000000 
L_Leg02 0.000000 0.000000 0.000000 0.000000 0.000000 0.000000 10.000000 
L_Leg03 0.000000 0.000000 0.000000 0.000000 0.000000 0.000000 10.000000 
L_Foot 0.000000 0.000000 0.000000 0.000000 0.000000 0.000000 10.000000 
L_Toe1_01 0.000000 0.000000 0.000000 0.000000 0.000000 0.000000 10.000000 
L_Toe2_01 0.000000 0.000000 0.000000 0.000000 0.000000 0.000000 10.000000 
L_Toe3_01 0.000000 0.000000 0.000000 0.000000 0.000000 0.000000 10.000000 
planeAlignerLeft 0.000000 0.000000 0.000000 0.000000 0.000000 0.000000 10.000000 
L_Toe1_02 0.000000 0.000000 0.000000 0.000000 0.000000 0.000000 10.000000 
L_Toe1_03 0.000000 0.000000 0.000000 0.000000 0.000000 0.000000 10.000000 
L_Toe2_02 0.000000 0.000000 0.000000 0.000000 0.000000 0.000000 10.000000 
L_Toe2_03 0.000000 0.000000 0.000000 0.000000 0.000000 0.000000 10.000000 
L_Toe3_02 0.000000 0.000000 0.000000 0.000000 0.000000 0.000000 10.000000 
L_Toe3_03 0.000000 0.000000 0.000000 0.000000 0.000000 0.000000 10.000000 
planeLockWeightLeft 0.000000 0.000000 0.000000 0.000000 0.000000 0.000000 10.000000 
R_Leg01 0.000000 0.000000 0.000000 0.000000 0.000000 0.000000 10.000000 
R_Leg02 0.000000 0.000000 0.000000 0.000000 0.000000 0.000000 10.000000 
R_Leg03 0.000000 0.000000 0.000000 0.000000 0.000000 0.000000 10.000000 
R_Foot 0.000000 0.000000 0.000000 0.000000 0.000000 0.000000 10.000000 
planeAlignerRight 0.000000 0.000000 0.000000 0.000000 0.000000 0.000000 10.000000 
R_Toe1_01 0.000000 0.000000 0.000000 0.000000 0.000000 0.000000 10.000000 
R_Toe2_01 0.000000 0.000000 0.000000 0.000000 0.000000 0.000000 10.000000 
R_Toe3_01 0.000000 0.000000 0.000000 0.000000 0.000000 0.000000 10.000000 
planeLockWeightRight 0.000000 0.000000 0.000000 0.000000 0.000000 0.000000 10.000000 
R_Toe1_02 0.000000 0.000000 0.000000 0.000000 0.000000 0.000000 10.000000 
R_Toe1_03 0.000000 0.000000 0.000000 0.000000 0.000000 0.000000 10.000000 
R_Toe2_02 0.000000 0.000000 0.000000 0.000000 0.000000 0.000000 10.000000 
R_Toe2_03 0.000000 0.000000 0.000000 0.000000 0.000000 0.000000 10.000000 
R_Toe3_02 0.000000 0.000000 0.000000 0.000000 0.000000 0.000000 10.000000 
R_Toe3_03 0.000000 0.000000 0.000000 0.000000 0.000000 0.000000 10.000000 
Rear_Leg02 0.000000 0.000000 0.000000 0.000000 0.000000 0.000000 10.000000 
Rear_Leg03 0.000000 0.000000 0.000000 0.000000 0.000000 0.000000 10.000000 
Rear_Leg04 0.000000 0.000000 0.000000 0.000000 0.000000 0.000000 10.000000 
Rear_Foot 0.000000 0.000000 0.000000 0.000000 0.000000 0.000000 10.000000 
planeAlignerCenter 0.000000 0.000000 0.000000 0.000000 0.000000 0.000000 10.000000 
Rear_Toe1_01 0.000000 0.000000 0.000000 0.000000 0.000000 0.000000 10.000000 
Rear_Toe2_01 0.000000 0.000000 0.000000 0.000000 0.000000 0.000000 10.000000 
Rear_Toe3_01 0.000000 0.000000 0.000000 0.000000 0.000000 0.000000 10.000000 
planeLockWeightCenter 0.000000 0.000000 0.000000 0.000000 0.000000 0.000000 10.000000 
Rear_Toe1_02 0.000000 0.000000 0.000000 0.000000 0.000000 0.000000 10.000000 
Rear_Toe1_03 0.000000 0.000000 0.000000 0.000000 0.000000 0.000000 10.000000 
Rear_Toe2_02 0.000000 0.000000 0.000000 0.000000 0.000000 0.000000 10.000000 
Rear_Toe2_03 0.000000 0.000000 0.000000 0.000000 0.000000 0.000000 10.000000 
Rear_Toe3_02 0.000000 0.000000 0.000000 0.000000 0.000000 0.000000 10.000000 
Rear_Toe3_03 0.000000 0.000000 0.000000 0.000000 0.000000 0.000000 10.000000 
Back_Bone 0.000000 0.000000 0.000000 0.000000 0.000000 0.000000 10.000000 
Head 0.000000 0.000000 0.000000 0.000000 0.000000 0.000000 10.000000 
Motor_Bone 0.000000 0.000000 0.000000 0.000000 0.000000 0.000000 10.000000 
Ping_Mechanism 0.000000 0.000000 0.000000 0.000000 0.000000 0.000000 10.000000 
BN_LookIK 0.000000 0.000000 0.000000 0.000000 0.000000 0.000000 10.000000 
bottomMouth 0.000000 0.000000 0.000000 0.000000 0.000000 0.000000 10.000000 
L_Mouth01 0.000000 0.000000 0.000000 0.000000 0.000000 0.000000 10.000000 
L_mouthFront 0.000000 0.000000 0.000000 0.000000 0.000000 0.000000 10.000000 
mouthGun 0.000000 0.000000 0.000000 0.000000 0.000000 0.000000 10.000000 
R_Mouth01 0.000000 0.000000 0.000000 0.000000 0.000000 0.000000 10.000000 
R_mouthFront 0.000000 0.000000 0.000000 0.000000 0.000000 0.000000 10.000000 
TopMouth 0.000000 0.000000 0.000000 0.000000 0.000000 0.000000 10.000000 
weapon_bone 0.000000 0.000000 0.000000 0.000000 0.000000 0.000000 10.000000 
#Beginning of Data. Separated by tabs
#Fr	Tx	Ty	Tz	Rx	Ry	Rz	SF
[Pinger_Root]
1 0.000000 0.000000 0.000000 -0.000075 -0.000000 -0.000020 0.000000
2 0.000000 0.000000 0.000000 -0.000075 -0.000000 -0.000020 0.000000
3 0.000000 0.000000 0.000000 -0.000075 -0.000000 -0.000020 0.000000
[Pelvis]
1 72.227875 916.536438 4432.233398 -100.363472 -85.972015 92.748032 4526.582520
2 72.485390 922.585632 4406.325684 -103.381546 -86.009384 95.755692 4502.458008
3 73.515427 935.893677 4349.329102 -110.369194 -86.128342 102.733040 4449.490234
[L_Hip]
1 5.766392 125.831482 872.656799 160.158691 -45.484905 122.312202 881.701050
2 5.766392 125.831482 872.656799 160.158691 -45.484905 122.312202 881.701050
3 5.766392 125.831482 872.656799 160.158691 -45.484905 122.312202 881.701050
[R_Hip]
1 5.765438 125.836372 -872.654907 38.087841 49.812687 125.703735 881.699829
2 5.765438 125.836372 -872.654907 38.087841 49.812687 125.703735 881.699829
3 5.765438 125.836372 -872.654907 38.087841 49.812687 125.703735 881.699829
[Rear_Leg01]
1 -192.298416 -925.602966 -0.001907 169.680527 1.958474 -159.661636 945.367432
2 -192.298416 -925.602966 -0.001907 169.603088 1.808221 -159.315277 945.367432
3 -192.298416 -925.602966 -0.001907 169.427155 1.473544 -158.447815 945.367432
[Spine1]
1 290.604584 5.007505 0.000477 7.265744 -0.619986 19.266817 290.647736
2 290.604584 5.007505 0.000477 7.343350 -0.383260 18.900303 290.647736
3 290.604584 5.007505 0.000477 7.502409 0.140121 18.175459 290.647736
[L_Leg01]
1 761.932007 -0.002384 -0.069261 22.817181 -15.695028 -9.052058 761.932068
2 761.932007 -0.002384 -0.069261 23.220501 -14.505324 -9.295937 761.932068
3 761.932007 -0.002384 -0.069261 24.133848 -11.817400 -9.878341 761.932068
[L_Leg02]
1 1441.140503 -0.000954 -0.000715 2.603748 -0.185718 -129.018967 1441.140503
2 1441.140503 -0.000954 -0.000715 3.627522 -0.213360 -129.358795 1441.140503
3 1441.140503 -0.000954 -0.000715 5.969561 -0.116725 -129.984833 1441.140503
[L_Leg03]
1 1686.963989 -0.000715 -0.000954 -0.029945 0.014719 118.138969 1686.963989
2 1686.963989 -0.000715 -0.000954 -0.034046 0.012564 119.437637 1686.963989
3 1686.963989 -0.000715 -0.000954 -0.045024 0.018455 122.191978 1686.963989
[L_Foot]
1 3041.570068 -30.715107 11.297464 1.950223 13.083426 55.475243 3041.746094
2 3041.570068 -30.715107 11.297464 2.235873 12.603569 55.237209 3041.746094
3 3041.570068 -30.715107 11.297464 2.931206 11.667358 54.687626 3041.746094
[L_Toe1_01]
1 -188.216690 -224.732346 -21.137953 93.719086 -6.862507 -171.970444 293.899567
2 -188.216690 -224.732346 -21.137953 93.730164 -6.888849 -172.125092 293.899567
3 -188.216690 -224.732346 -21.137953 93.741295 -6.915159 -172.279739 293.899567
[L_Toe2_01]
1 200.746536 -219.926590 148.838394 -90.023987 -26.311703 -52.677628 332.896027
2 200.746536 -219.926590 148.838394 -90.090630 -26.376186 -52.483273 332.896027
3 200.746536 -219.926590 148.838394 -90.157555 -26.440456 -52.288704 332.896027
[L_Toe3_01]
1 188.832520 -219.859131 -191.078659 -99.788055 13.839008 -67.673027 347.140900
2 188.832520 -219.859131 -191.078659 -99.754646 13.887806 -67.459877 347.140900
3 188.832520 -219.859131 -191.078659 -99.721016 13.936483 -67.246613 347.140900
[planeAlignerLeft]
1 32.989502 -593.020996 101.087341 169.306686 -76.298271 89.968506 602.478943
2 32.889709 -591.368652 101.211929 169.306686 -76.298271 89.968506 600.868103
3 32.508617 -587.497864 101.690353 169.306686 -76.298271 89.968506 597.119385
[L_Toe1_02]
1 413.761139 0.000477 0.000000 0.000203 -25.410625 -0.000182 413.761139
2 413.761139 0.000477 0.000000 0.000203 -25.410625 -0.000182 413.761139
3 413.761139 0.000477 0.000000 0.000203 -25.410625 -0.000182 413.761139
[L_Toe1_03]
1 464.317322 0.000358 -0.000089 0.003734 53.359097 0.003734 464.317322
2 464.317322 0.000358 -0.000089 0.003736 53.383461 0.003736 464.317322
3 464.317322 0.000358 -0.000089 0.003738 53.407833 0.003738 464.317322
[L_Toe2_02]
1 342.235809 -0.000477 0.000238 0.001188 -72.402016 0.001188 342.235809
2 342.235809 -0.000477 0.000238 0.001187 -72.521355 0.001187 342.235809
3 342.235809 -0.000477 0.000238 0.001187 -72.640747 0.001187 342.235809
[L_Toe2_03]
1 420.210846 -0.000715 0.000000 0.029090 85.375511 0.029090 420.210846
2 420.210846 -0.000715 0.000000 0.030188 85.543762 0.030188 420.210846
3 420.210846 -0.000715 0.000000 0.020394 85.947495 0.021268 420.210846
[L_Toe3_02]
1 329.270111 0.000954 0.000000 0.001178 -80.480331 0.001178 329.270111
2 329.270111 0.000954 0.000000 0.001178 -80.588379 0.001178 329.270111
3 329.270111 0.000954 0.000000 0.001177 -80.696335 0.001177 329.270111
[L_Toe3_03]
1 439.137451 -0.001907 0.000954 -179.995956 78.605698 -179.992447 439.137451
2 439.137451 -0.001907 0.000954 -179.996094 78.375816 -179.992569 439.137451
3 439.137451 -0.001907 0.000954 -179.996338 77.832359 -179.992828 439.137451
[planeLockWeightLeft]
1 999.998718 0.097961 0.076027 -0.011826 -0.004376 0.005620 999.998779
2 999.998718 0.097961 0.076027 -0.011826 -0.004376 0.005620 999.998779
3 999.998718 0.097961 0.076027 -0.011826 -0.004376 0.005620 999.998779
[R_Leg01]
1 761.455627 -0.001907 -0.000358 120.155914 -8.176376 35.633469 761.455688
2 761.455627 -0.001907 -0.000358 120.147835 -6.781182 35.774643 761.455688
3 761.455627 -0.001907 -0.000358 120.015877 -3.583226 36.163719 761.455688
[R_Leg02]
1 1441.140625 0.000000 -0.000238 -1.339028 -0.199425 -118.901085 1441.140625
2 1441.140625 0.000000 -0.000238 -2.381759 -0.380526 -118.188911 1441.140625
3 1441.140625 0.000000 -0.000238 -4.726674 -0.912327 -116.363106 1441.140625
[R_Leg03]
1 1686.963989 0.000954 0.001431 0.075761 -0.043586 131.407837 1686.963989
2 1686.963989 0.000954 0.001431 0.081912 -0.046749 132.371902 1686.963989
3 1686.963989 0.000954 0.001431 0.087570 -0.050794 134.348450 1686.963989
[R_Foot]
1 3041.560059 -30.531288 -11.204481 -0.529816 -24.684416 55.344288 3041.734131
2 3041.560059 -30.531288 -11.204481 -0.896086 -24.479918 55.006897 3041.734131
3 3041.560059 -30.531288 -11.204481 -1.740294 -24.195055 54.220421 3041.734131
[planeAlignerRight]
1 -127.148438 -574.019226 -312.902222 -36.577137 -71.339012 -64.343925 666.012451
2 -127.258911 -572.361938 -313.042145 -36.577156 -71.339012 -64.343925 664.671631
3 -127.684174 -568.469971 -313.568726 -36.577137 -71.339012 -64.343925 661.654480
[R_Toe1_01]
1 -188.383347 -224.864899 21.052242 76.763535 -0.414595 -172.728699 294.101532
2 -188.383347 -224.864899 21.052242 76.768715 -0.408361 -172.900558 294.101532
3 -188.383347 -224.864899 21.052242 76.773888 -0.402112 -173.072403 294.101532
[R_Toe2_01]
1 200.637817 -220.002121 -148.787384 -91.743256 32.873833 -59.182163 332.857574
2 200.637817 -220.002121 -148.787384 -91.677399 32.974812 -59.003712 332.857574
3 200.637817 -220.002121 -148.787384 -91.611076 33.075623 -58.824894 332.857574
[R_Toe3_01]
1 188.606735 -220.092957 191.126343 -73.225998 -8.456855 -73.756157 347.192566
2 188.606735 -220.092957 191.126343 -73.229782 -8.494807 -73.594063 347.192566
3 188.606735 -220.092957 191.126343 -73.233658 -8.532745 -73.431953 347.192566
[planeLockWeightRight]
1 999.999329 0.000000 0.076017 -0.011823 -0.004379 -0.000027 999.999329
2 999.999329 0.000000 0.076017 -0.011823 -0.004379 -0.000027 999.999329
3 999.999329 0.000000 0.076017 -0.011823 -0.004379 -0.000027 999.999329
[R_Toe1_02]
1 413.762085 0.000477 -0.000119 0.001394 -24.659479 0.001394 413.762085
2 413.762085 0.000477 -0.000119 0.001394 -24.647457 0.001394 413.762085
3 413.762085 0.000477 -0.000119 0.001394 -24.635441 0.001394 413.762085
[R_Toe1_03]
1 464.317810 0.000000 0.001088 0.006625 69.593369 0.006625 464.317810
2 464.317810 0.000000 0.001088 0.006651 69.671768 0.006651 464.317810
3 464.317810 0.000000 0.001088 0.006676 69.750137 0.006676 464.317810
[R_Toe2_02]
1 342.234741 -0.000954 0.000238 0.001197 -67.221245 0.001197 342.234741
2 342.234741 -0.000954 0.000238 0.001197 -67.378784 0.001197 342.234741
3 342.234741 -0.000954 0.000238 0.001197 -67.536278 0.001197 342.234741
[R_Toe2_03]
1 420.210846 0.000715 -0.000268 0.008234 73.612061 0.008234 420.210846
2 420.210846 0.000715 -0.000268 0.008328 73.797508 0.008328 420.210846
3 420.210846 0.000715 -0.000268 0.008555 74.229790 0.008555 420.210846
[R_Toe3_02]
1 329.270355 -0.000477 -0.000954 0.001184 -74.518616 0.001184 329.270355
2 329.270355 -0.000477 -0.000954 0.001184 -74.702187 0.001184 329.270355
3 329.270355 -0.000477 -0.000954 0.001184 -74.885674 0.001184 329.270355
[R_Toe3_03]
1 439.137939 0.000238 0.001431 -0.011587 83.300278 -0.008085 439.137939
2 439.137939 0.000238 0.001431 -0.011992 83.565315 -0.008489 439.137939
3 439.137939 0.000238 0.001431 -0.013218 84.253960 -0.009717 439.137939
[Rear_Leg02]
1 1162.777710 -0.029802 0.005960 0.634754 -2.916514 -123.692612 1162.777710
2 1162.777710 -0.029802 0.005960 0.672180 -2.910326 -124.466522 1162.777710
3 1162.777710 -0.029802 0.005960 0.754230 -2.887591 -126.125221 1162.777710
[Rear_Leg03]
1 607.192505 -0.013351 -0.073195 0.006472 -0.002119 64.461884 607.192505
2 607.192505 -0.013351 -0.073195 0.010643 -0.004783 64.748627 607.192505
3 607.192505 -0.013351 -0.073195 0.010618 -0.004838 65.344971 607.192505
[Rear_Leg04]
1 995.874512 -0.020504 -0.011921 -0.040559 -0.015048 58.562256 995.874573
2 995.874512 -0.020504 -0.011921 -0.040632 -0.014851 59.118690 995.874573
3 995.874512 -0.020504 -0.011921 -0.042032 -0.016558 60.331444 995.874573
[Rear_Foot]
1 3096.176270 -0.067472 -0.041425 -143.807465 85.749458 48.945320 3096.176270
2 3096.176270 -0.067472 -0.041425 -144.205276 85.725243 48.745018 3096.176270
3 3096.176270 -0.067472 -0.041425 -145.125610 85.659729 48.288349 3096.176270
[planeAlignerCenter]
1 1.039009 -15.214539 -777.158997 12.240772 -0.001473 179.998184 777.308594
2 1.038170 -15.328064 -775.518799 12.240772 -0.001473 179.998184 775.670898
3 1.038246 -15.763015 -771.694519 12.240772 -0.001473 179.998184 771.856201
[Rear_Toe1_01]
1 0.653352 83.966492 -371.173737 0.288091 41.914127 90.413170 380.553192
2 0.653352 83.966492 -371.173737 0.287837 41.713928 90.409996 380.553192
3 0.653352 83.966492 -371.173737 0.287599 41.513710 90.406822 380.553192
[Rear_Toe2_01]
1 178.200760 -294.826019 -362.060547 -7.196267 34.406261 -66.271294 499.765686
2 178.200760 -294.826019 -362.060547 -7.222962 34.230236 -66.285660 499.765686
3 178.200760 -294.826019 -362.060547 -7.249547 34.054199 -66.299919 499.765686
[Rear_Toe3_01]
1 -153.359680 -308.780914 -362.060852 3.289418 33.518005 -112.540970 499.952881
2 -153.359680 -308.780914 -362.060852 3.303683 33.349209 -112.524864 499.952881
3 -153.359680 -308.780914 -362.060852 3.317866 33.180405 -112.508842 499.952881
[planeLockWeightCenter]
1 1000.000000 0.000305 0.076256 -0.011814 -0.004373 -0.000015 1000.000000
2 1000.000000 0.000305 0.076256 -0.011814 -0.004373 -0.000015 1000.000000
3 1000.000000 0.000305 0.076256 -0.011814 -0.004373 -0.000015 1000.000000
[Rear_Toe1_02]
1 379.707825 0.194073 0.000477 -0.000242 -31.676744 0.006934 379.707855
2 379.707825 0.194073 0.000477 -0.000250 -31.781403 0.006938 379.707855
3 379.707825 0.194073 0.000477 -0.000257 -31.886059 0.006942 379.707855
[Rear_Toe1_03]
1 500.129700 0.165701 0.000119 -0.000103 51.902481 0.007295 500.129761
2 500.129700 0.165701 0.000119 -0.000071 52.216209 0.007320 500.129761
3 500.129700 0.165701 0.000119 0.000012 53.004173 0.007387 500.129761
[Rear_Toe2_02]
1 340.494507 0.000238 -0.000954 0.001192 -69.854523 0.001192 340.494507
2 340.494507 0.000238 -0.000954 0.001192 -69.894211 0.001192 340.494507
3 340.494507 0.000238 -0.000954 0.001192 -69.933907 0.001192 340.494507
[Rear_Toe2_03]
1 433.103577 0.000000 0.000238 0.006696 69.810326 0.006696 433.103546
2 433.103577 0.000000 0.000238 0.006722 69.890038 0.006722 433.103546
3 433.103577 0.000000 0.000238 0.006748 69.969757 0.006748 433.103546
[Rear_Toe3_02]
1 340.494141 -0.000358 -0.000477 0.008288 -67.274704 -0.009460 340.494171
2 340.494141 -0.000358 -0.000477 0.008301 -67.307831 -0.009473 340.494171
3 340.494141 -0.000358 -0.000477 0.008313 -67.340950 -0.009486 340.494171
[Rear_Toe3_03]
1 433.103577 0.001431 -0.000238 -0.000972 65.958984 -0.004547 433.103546
2 433.103577 0.001431 -0.000238 -0.000980 66.029831 -0.004555 433.103546
3 433.103577 0.001431 -0.000238 -0.000989 66.100639 -0.004563 433.103546
[Back_Bone]
1 1312.175781 -701.934692 0.000954 1.476979 0.001718 -85.608841 1488.125488
2 1312.175781 -701.934692 0.000954 1.476979 0.001718 -85.608841 1488.125488
3 1312.175781 -701.934692 0.000954 1.476979 0.001718 -85.608841 1488.125488
[Head]
1 1406.159424 809.709290 0.001431 0.000625 -1.475623 7.768025 1622.625488
2 1406.159424 809.709290 0.001431 -0.010413 -1.474126 7.863202 1622.625488
3 1406.159424 809.709290 0.001431 -0.021449 -1.472610 7.958378 1622.625488
[Motor_Bone]
1 1158.364380 -417.834747 0.000477 -0.095385 0.076104 -105.915703 1231.419434
2 1158.364380 -417.834747 0.000477 -0.095385 0.076104 -105.915703 1231.419434
3 1158.364380 -417.834747 0.000477 -0.095385 0.076104 -105.915703 1231.419434
[Ping_Mechanism]
1 1233.748169 -441.769379 -0.318842 0.000103 -0.000053 82.120995 1310.455933
2 1233.376709 -441.332062 -1.970239 0.000103 -0.000053 82.120995 1309.960327
3 1233.005249 -440.894745 -3.621635 0.000103 -0.000053 82.120995 1309.466797
[BN_LookIK]
1 193.241119 1380.371704 -0.002861 0.000000 89.965736 -31.038179 1393.832153
2 193.241119 1380.371704 -0.002861 0.000000 89.965736 -31.038179 1393.832153
3 193.241119 1380.371704 -0.002861 0.000000 89.965736 -31.038179 1393.832153
[bottomMouth]
1 -435.092926 615.759399 -0.000954 -0.000022 0.000016 73.527184 753.966492
2 -435.092926 615.759399 -0.000954 -0.000022 0.000016 73.527184 753.966492
3 -435.092926 615.759399 -0.000954 -0.000022 0.000016 73.527184 753.966492
[L_Mouth01]
1 554.440979 7.658243 838.222046 150.204178 23.759130 109.605339 1005.027161
2 554.440979 7.658243 838.222046 150.204178 23.759130 109.605339 1005.027161
3 554.440979 7.658243 838.222046 150.204178 23.759130 109.605339 1005.027161
[L_mouthFront]
1 551.629089 934.514771 339.150421 0.000081 2.804060 79.119301 1136.941284
2 551.629089 934.514771 339.150421 0.000081 2.804060 79.119301 1136.941284
3 551.629089 934.514771 339.150421 0.000081 2.804060 79.119301 1136.941284
[mouthGun]
1 55.332661 1627.420898 0.000000 0.000023 0.000009 -11.038128 1628.361328
2 55.332661 1627.420898 0.000000 0.000023 0.000009 -11.038128 1628.361328
3 55.332661 1627.420898 0.000000 0.000023 0.000009 -11.038128 1628.361328
[R_Mouth01]
1 554.442383 7.659197 -838.223938 29.795891 -23.759109 109.605331 1005.029541
2 554.442383 7.659197 -838.223938 29.795891 -23.759109 109.605331 1005.029541
3 554.442383 7.659197 -838.223938 29.795891 -23.759109 109.605331 1005.029541
[R_mouthFront]
1 551.629089 934.514282 -339.151367 0.000029 -2.803930 79.119133 1136.941162
2 551.629089 934.514282 -339.151367 0.000029 -2.803930 79.119133 1136.941162
3 551.629089 934.514282 -339.151367 0.000029 -2.803930 79.119133 1136.941162
[TopMouth]
1 461.269867 -56.106091 -0.008583 -0.000059 -0.000268 92.025169 464.669525
2 461.269867 -56.106091 -0.008583 -0.000059 -0.000268 92.025169 464.669525
3 461.269867 -56.106091 -0.008583 -0.000059 -0.000268 92.025169 464.669525
[weapon_bone]
1 -987.239868 1448.372803 0.001431 0.000000 89.965736 -31.038221 1752.833740
2 -987.239868 1448.372803 0.001431 0.000000 89.965736 -31.038221 1752.833740
3 -987.239868 1448.372803 0.001431 0.000000 89.965736 -31.038221 1752.833740
